<?xml version="1.0" encoding="utf-8"?>
<!-- Generator: Adobe Illustrator 27.9.0, SVG Export Plug-In . SVG Version: 6.00 Build 0)  -->
<svg version="1.1" id="Layer_1" xmlns="http://www.w3.org/2000/svg" xmlns:xlink="http://www.w3.org/1999/xlink" x="0px" y="0px"
	 viewBox="0 0 140 140" style="enable-background:new 0 0 140 140;" xml:space="preserve">
<style type="text/css">
	.st0{fill:#003566;}
	.st1{fill:#FFFFFF;}
</style>
<g>
	<g>
		<path class="st0" d="M34.5,83.6c0-6.9-3.5-14.1-10.9-18.4c-3.6-2.1-6.6-2.7-6.3-8c0.2-4.5,3.3-8.7,3.4-17.4
			c0.1-5.4-0.3-14.1-7.2-19.1c3.8-1.8,9.1,0.9,10.4,5.3c1.3,1.2,2.5,2.8,2.7,3.9c0.8-8.8-1-17.6-3.4-21.6c4.1,0.3,6.6,3.1,8.3,6.1
			c1.6,2.9,2.8,9.9,2,16.5c2.4-7.2,3.6-12.9,2.9-19.3c2.3,0.2,4.2,3,4.8,5.3c0.4,1.7,0.6,5.9-0.2,9.6c2-3.9,2.8-6.6,3.5-10.1
			c2.3,1.3,4.3,5.8,1.5,12.8c1.7-1.7,2.7-4,3.3-5.3c2.9,3.5,1.3,10.5-1.8,14.7c1.6-1.3,3.4-3.4,3.9-4.1C53,36.9,53.2,42,49,46.5
			c2.3-1,6.1-2.9,7.8-4c0.5,2.9-0.6,5.7-2.4,7c2.1-0.7,4.2-1.5,5.7-2c-0.1,2.5-1.2,4.9-4.4,6.3c3.4-0.1,7.5,1,8.9,3.2
			c0.1,0,0.4,0.1,0.4,0.1c3.3-4.6,2.2-8.9,4.9-10.8c4.5-3.3,13.5-11.5,18.7-22.3c2.4-5.3,3.1-10.2,1.9-14.6
			c4.4,2.1,5.7,9.4,4.6,13.6c0.3,0.8,0.4,2.4,0.3,3.4c6.3-9.8,10-19.2,9.9-24.8c4.3,2.9,4.9,8.3,4.8,11c-0.1,2.8-1.7,9.4-5.6,14.7
			c7.4-7.1,11.1-12.8,13.2-18.5c2.1,2.3,2.1,6.7,1.9,8.5c-0.3,1.8-1.8,7.7-7.4,13.8c5.6-4.5,9.6-9.2,11.4-11.7
			c1.9,4.5,1,10.6-6,16.6c2.7-1.3,6.3-3.8,7.6-4.7c0.4,3.8-2.2,8.3-5.9,11.2c1.3-0.5,2.5-1.2,3.3-1.6c0.2,2.5-0.8,7.6-7.1,11
			c1.2-0.3,2.5-0.9,3.5-1.3c-0.3,3.4-4.3,7.5-9.6,9.8c1.6-0.2,2.9-0.5,4.4-0.8c-0.6,2.1-2.4,4.2-4.7,5.8c-0.3,2.9-3.8,5.5-5.5,6.3
			c-0.4,2.3-3.2,4.4-4.7,5.3c-0.6,2-2.5,3.8-4.7,5c-0.7,1.7-2.2,2.9-4.2,4c-0.5,1.4-3.7,3.2-5.4,3.7c-0.7,1.6-4,2.5-7.1,2.9
			c2.8,2.6,5.3,4.9,7,6.5c11,8.4,27.7,19.4,42.3,21.6c-0.8,1.8-4.6,3.9-7.5,4.4c-1.7,1.7-4.7,3-8.9,2.7c-1.4,1.6-5.3,2.3-7.2,2.1
			c-1.1,1-4.2,1.3-5.9,0.8c-1.1,0.9-3.4,1-5.5,0.6c-1.7,0.7-3.5,0.6-5.8-0.4c-2,0.6-5,0-7.3-2c-2.3-2-5.5-6.4-7.3-10.4
			c-1.1,1.3-3.9,2.4-5.8,2.4c-0.6,0.3-1.5,0.3-1.9,0.3c-1,1.1-4.1,2.9-6.3,3.4c-0.6,1.3,0.2,3.8-0.1,4.6c-0.7,1.9-2.4,3.9-5.4,3.7
			c-2.1-0.2-3.4-1.6-3.7-3.1c-0.8-0.9-1-3-0.1-3.9c-0.6,0.1-1.4,0.2-2,0.1c-0.9,1.1-2.8,2.5-3.5,3c-0.1,1.2,1,2.4,1.4,2.9
			c0.8,1,1.5,2.4,1.2,3.7c-0.2,1.3-1.8,2.1-2.6,1.9c-1.9,1-4.3,0.6-4.6-1.3c0.8,0.4,2.1,0,2.6-0.6c-0.4-0.9,0.2-1.9-0.1-2.7
			c-0.3-0.8-0.9-1.1-1.3-1.6c-1.3,0.6-2.3,0.4-3.6,0.9c-0.7,0.3-0.9,1.2-1.6,1.4c0.2,0.6,1,0.9,1.9,0.8c-0.5,1.1-3.5,2-4.7-0.3
			c-0.6-1-0.7-2-0.1-2.8c0.7-1,2.8-1,4.7-2c-1.8,0.1-2.9-0.5-3.6-0.4c-0.7,0.1-0.7,0.6-1.9,0.9c-0.3,0.5-0.1,1.3,0.1,1.7
			c-1.2,0.2-2.6-1.5-2.1-3.1c0-1,0.8-1.8,1.4-2.1c0.6-0.4,1.8-0.6,2.6-0.3c0.8,0.3,1.7,0.7,2.6,0.8c-0.5-0.3-0.8-1.2-0.8-1.2
			c-0.8-0.1-1.7-0.9-1.9-1.5c-0.7,0.2-1.2,0.8-1.2,1.2c-0.8-0.3-0.8-1.3-0.7-1.9c0.2-0.8,1-1.5,2.1-1.7c0.6-0.8,1.8-1,2.7-0.7
			c0.9,0.2,1.5,1.1,1.7,2.1c0.2,1.1,0.9,2.2,1.9,2.6c0.5,0.2,1.3,0.3,1.9,0.3c0.5-0.1,1-0.7,1.3-0.9c-1.1-1.3-1.2-4.9,0.7-6.4
			c-0.3-1.8,1.2-3.9,2.8-4.5c0.4-1.5,0.4-3.8-0.5-5.6c-2.3-1.7-5-4.7-8.4-6.1c-4-1.7-6.8-5.9-6.4-11.8
			C29.9,85.9,33.6,84.4,34.5,83.6z"/>
		<path class="st1" d="M47.2,81.5c-4.3-0.1-9.9,1.9-11.9,5.2c-1.6,2.7,0.7,9.7,4.6,11.5c-0.2-0.8-0.1-1.7,0-2.2
			c1.9,2.4,3.2,3.9,4.4,4.6c1.2,0.7,2,1,2.9,1.2c-1-0.9-1.8-2.4-1.9-2.9c1.8,1.5,3.9,2.6,5.8,2.8c-0.8-0.6-1.1-1.2-1.3-1.6
			c-1.3-0.2-2.6-1.2-2.8-2.3c1.2,0.5,3.9,1.2,6.1,1.1c-0.9,0.6-1.7,0.8-2.2,1c1.2,0.6,3,1.1,4.3,1.1c-0.6-0.6-0.9-1.3-1-1.9
			c1.4,1.1,3.9,1.6,4.3,2c0.2-0.3,0.6-0.6,0.9-0.7c-0.8,0.8-1.2,3.2-0.9,4.9c0.2-0.7,0.6-1.2,1-1.5c-0.3,1.5-0.2,4.3,0.5,7.2
			c0.8,2.9,1.1,5.9,0.7,7.3c1.6,0.2,4.2-0.8,4.7-2.7c0.5,0.8,0.3,2.2,0.2,2.5c2.1-0.8,3.6-3.9,3.8-5.2c0.3,0.5,0.6,1.8,0.6,2.3
			c1.3-0.8,1.7-3.3,1.9-4.4c-0.6,0.6-1.9,1.1-2.4,0.5c1.3-0.8,2.1-3,2-3.8c-0.7,0.6-1.8,0.4-2,0.2c0.9-0.5,2.2-2.8,2-5
			c0.8,0.6,1.3,1.7,1.1,3.3c0.6,1.2,0.4,3.2,0,3.9c0.4,0.4,0.8,1.2,0.8,1.5c0.6-1.4,0.7-3.8-0.2-5.8c0.8-1.2,1-2.9,1-3.7
			c0.7,0.5,1.1,2.6,1.1,3.4c0.5-0.8,0.4-2.2,0.2-3.2c0.8,0.4,1.7,1.5,1.8,2.4c1,1.1,3,2.4,4.4,2.6c-1.2-1.4-1.7-2.6-1.9-3.6
			c1.5,1.5,4.6,3.9,6.7,4.1c-1.7-2.3-4.4-8.4-13.5-15.5c-2.6-0.4-6-1.3-8.5-2.9c-3.4-0.3-7-1.4-8.9-2.5c-1.5,0-4-0.5-4.7-1.3
			c4.3,0.1,9.1-1.1,10.7-2.7c-1.7,0.1-3.5,0-4.5-0.7c3.5-0.5,7.4-2.3,8.4-4.1c-1.2,0.3-2.2,0.3-3.1,0.1c3.1-1.3,6.1-3.4,7.2-5.9
			c-1.2,0.6-2.5,0.9-3.6,0.7c2.9-1.3,5.3-3.9,6.1-5.8c-1.5,0.6-3.7,1.1-4.8,0.7c3.5-1.4,7.5-4.5,7.9-6.3c-1.2,0.4-2.3,0.4-2.8,0.3
			c2.2-1.3,5-3.3,5.9-4.9c-1.7,0.6-2.5,0.8-3.9,0.7c3-1.4,6.1-4.2,6.6-6c-1.9,1.1-4.2,1.9-5.8,2c1.7-1.3,4.5-3.1,5.4-3.9
			c0.9-0.8,1.9-2.5,2-3.7c-1.8,2.3-4.6,4.4-7.4,4.7c3-1.8,4.5-3.9,5.5-5.5c-1.5,0.7-3.1,1-4.4,0.5c4.5-1.5,8.8-6.1,11.5-10
			c1.6-2.3,3.7-5.8,4.6-9c0.4-1.2,0-3,0.3-4.1c0.5-1.9,0.6-3.5,0.1-5.2c-1,5.7-4.8,12.3-8.7,17.5c-2.9,3.9-8.1,9-12.9,12.6
			c-2,1.5-0.6,4.3-4.6,11.1c-4.6,7.7-10.2,13.3-13.8,17.7c-3.3,4.1-4.9,7.2-5.3,8.6C46.7,84.2,47.1,82.1,47.2,81.5z"/>
		<path class="st1" d="M60.3,86.4c3.1,1.3,8,1,9.9,0c-3,0.3-6.1,0.1-8.4-0.6C61.3,86,60.7,86.2,60.3,86.4z"/>
		<path class="st1" d="M63.6,84.4c2.8,0.7,7,0.3,8.7-1c-2.8,0.4-6.1,0.2-7.9-0.2C64.2,83.8,63.9,84.1,63.6,84.4z"/>
		<path class="st1" d="M65.3,81.6c2.8,0.6,6.9,0.4,8.6-0.8c-2.6,0.4-5,0.2-7.3-0.3C66.3,80.9,65.9,81.3,65.3,81.6z"/>
		<path class="st1" d="M67.5,78.8c3.2,0.5,7.7,0.1,9.6-1.3C74.2,78,69,78,68.1,77.3c-0.2,0.1-0.3,0.2-0.5,0.3
			C67.7,78,67.7,78.5,67.5,78.8z"/>
		<path class="st1" d="M69.9,75.9c3.1,0.4,8.3-0.3,10.5-2.2c-3.3,0.5-7.2,0.3-9.2,0.1C71.1,74.3,70.6,75.2,69.9,75.9z"/>
		<path class="st1" d="M71.2,71.8c5.9,0.6,10.3-0.3,11.4-0.7c1.2-0.4,3.4-1.6,4-2.5c-3.6,1.2-9.9,1.6-13.4,1.3
			C72.7,70.5,72,71.2,71.2,71.8z"/>
		<path class="st1" d="M74.1,68.5c5.4,0.1,13.3-0.8,17.8-4.8c-1.5,0.1-2.4,0.2-3,0.2c-4.1,2.2-9.7,3.3-14.4,3.5
			C74.4,67.7,74.3,68.2,74.1,68.5z"/>
		<path class="st1" d="M75.1,65.7c0.8-0.6,1.4-1.5,1.7-2c5.5-0.5,11.3-2.1,15.8-4.4C90.1,62.4,81.2,65.7,75.1,65.7z"/>
		<path class="st1" d="M77,61.8c0.1-0.2,0.1-0.5,0.1-0.8c0.8-0.4,1.9-1.2,2.1-1.6c2.4-0.3,10.6-2.2,16.3-7.2c0.4,0,0.7,0,1.1,0
			C94.2,57.8,83.7,61.4,77,61.8z"/>
		<path class="st1" d="M80.5,57.6c0.2-0.4,0.3-1.2,0.2-1.5c0.9-0.6,1.6-1.5,1.9-2.1c3.2-0.5,10.7-3.4,14.5-6.7
			C95.1,51.5,87.1,56,80.5,57.6z"/>
		<path class="st1" d="M83.2,52.2c0-0.4-0.1-0.8-0.1-1c4.7-1.8,10-5.1,13.4-9.6c0.9-0.2,1.6-0.4,2.2-0.5
			C96.8,46.5,87.5,51.5,83.2,52.2z"/>
		<path class="st1" d="M84.4,48.5c1-1.5,1.3-3.9,0.7-4.7c3.2-1.6,10-6.6,13.2-9.5C96.8,40.1,89,46.2,84.4,48.5z"/>
		<path class="st1" d="M90.4,37.9c1.6-2.3,3.1-4.9,3.7-6.4c8.1-9.6,12.1-20.4,12.3-25.3c2.4,4.6,0.8,10.1-0.3,12.8
			c-1.1,2.7-4.9,9.6-7.4,12.4C96.6,33.3,91.6,37.2,90.4,37.9z"/>
		<path class="st1" d="M101,32.7c8.4-6.1,14.4-14.3,16.5-18.8c0.9,6.4-5.9,15.1-8.3,17.5c-3.4,3.4-9.3,7.7-11.4,8.7
			C99.4,38.1,100.7,34.3,101,32.7z"/>
		<path class="st1" d="M100.4,40.4c8.9-4,17.3-10.7,21.7-16.3c0,5.4-6.9,10.8-9.5,12.8c-2.7,2-11.4,7.3-13.7,8.1
			C100.2,43,100.4,41,100.4,40.4z"/>
		<path class="st1" d="M97,51.1c1.5-1.5,2.8-4.2,3.3-5.2c1.1-0.4,2.3-0.8,3.5-1.4c7.1-2.4,13.9-6.1,17.9-8.5
			C117.5,44.2,103.6,49.2,97,51.1z"/>
		<path class="st1" d="M95.7,57.1c1.5-1.6,2.6-3.3,2.5-5c4-0.8,9.4-2.7,11.3-3.4c3.1-0.8,8.2-3.1,10.3-4.3
			c-1.6,3.4-5.3,6.2-10.1,8.4C106.6,54.3,98.7,56.4,95.7,57.1z"/>
		<path class="st1" d="M91.6,62.5c1.8-1.1,3.5-3,4-4.8c4.8-0.3,9.8-1.4,12.7-2c1.8,0,5.1-0.9,6-1.1c-1.9,2-6.2,4.5-10.2,5.8
			C100.2,61.6,94.7,62.3,91.6,62.5z"/>
		<path class="st1" d="M89.6,67.5c2.2-1,4.7-3.2,5.3-4.2c3.7,0.4,9.7,0.1,14.3-1C104.8,66.6,94.8,67.8,89.6,67.5z"/>
		<g>
			<path class="st1" d="M95.9,69.2c-3.2,0.4-6.4,0.3-7.7,0.2c-0.7,0.9-2.3,2.3-4.6,3.3c-0.1,0.6-0.5,1.1-0.9,1.7
				c4.1-0.2,10.4-0.7,13.4-1.5c3.8-1.1,7.6-3.2,8.6-5C101.6,68.9,98.3,69.3,95.9,69.2z"/>
			<path class="st1" d="M73.3,85.9c-0.4,1-1.4,1.8-2.8,2.6c4.6,1.6,10.6,1.4,13.2-0.7C80,88.2,76,87.1,73.3,85.9z"/>
			<path class="st1" d="M75.5,82.2c-0.1,0.8-0.5,1.7-2,2.5c0,0.4-0.1,0.7-0.2,1c2.8,0.4,6.4,0.7,9.4,0.5c2.9-0.3,5.4-1.2,6.4-2.2
				C84.5,84.7,80.8,84.1,75.5,82.2z"/>
			<path class="st1" d="M78.2,78.9c-0.4,0.3-0.9,0.6-1.4,0.8c0,0.9-0.4,1.6-1.2,2.3c3,0.5,7.9,0.7,10.2,0.6c2.8-0.2,6.9-1.5,8-3
				C89.1,80.8,83.2,80.6,78.2,78.9z"/>
			<path class="st1" d="M82.3,74.7c-0.6,0.7-1.5,1.3-2.3,1.7c-0.2,0.7-0.7,1.5-1.4,2.2c3.6,0.2,8.6,0.1,11.5-0.4
				c3.8-0.6,6.9-2.1,8.6-4.2C92.6,75.9,86.1,75.4,82.3,74.7z"/>
		</g>
		<path class="st1" d="M36.9,82.3c-0.2-7.3-4.7-14.9-13.5-19.7c-3.4-1.7-3.7-3.7-3.5-5.4c0.2-1.7,1.5-6.5,2-7.2
			c0.5-0.7,2.8-1.3,3.1,0.2c-0.7,0.5-1.7,1.5-1.9,2.5c0.8-0.9,1.8-1.4,2.5-1.5c0.7-0.2,1.7,0.2,1.9,0.9c-1.2,0.3-2.5,1.4-2.7,1.9
			c1-0.5,2.5-1,3.3-0.9c0.8,0.1,1.6,0.9,1.2,1.8c-1.6,0.2-3.5,1.5-4,2.6c0.9-0.6,3.2-1.1,4.3-1.2c1.1-0.1,2.7,0.2,3.2,1.1
			c-2.1-0.1-4.4,0.6-5.5,1.6c3.2-0.7,6.4-0.6,7.8,0.4c-1.9,0-4.3,0.5-5.5,1.4c1.9-0.2,3.8-0.2,5.3,0c1.5,0.2,2.8,1,3.2,1.5
			c-1.9-0.5-5.6-0.2-6.5,0.5c2.5-0.1,7.2,0.4,8.5,2.5c-1.8-0.5-4.5-0.7-5.7,0c2.9,0.4,6.5,2,7.7,3.1c-1.6-0.3-3.5-0.3-4.4,0
			c2.3,0.6,4.5,1.8,5.5,2.4c1,0.6,1.7,1.4,1.6,2.3c-2-0.7-4.7-0.6-5.6-0.1c3,0.9,5.3,1.6,6.3,2.8c-1.6-0.2-2.9,0.3-3.5,0.4
			c2.5,0.6,5.2,1.7,6.1,3C45.6,79,39.8,80.2,36.9,82.3z"/>
		<path class="st1" d="M22.4,47.6c1.1-7.8,1.5-19.5-4.4-25.1c1.8,0.2,3.2,2,4.2,4.3c0.4,1,2.3,2.1,3,4.6c0.7,2.6,0.9,4.5,0.7,6.5
			c-0.2,2-1.6,7.9-2.2,9.3C23.3,47.4,22.8,47.5,22.4,47.6z"/>
		<path class="st1" d="M25.3,47.6c0.4,0.2,0.9,0.6,1.2,1.2c2.8-3.5,4-6.5,4.7-8.3c0.7-1.8,1.5-6.1,0.5-6.4c-1-0.3-3.4,5.1-4,6.7
			C27.1,42.3,26.9,44,25.3,47.6z"/>
		<path class="st1" d="M27.7,49.9c2.2-2.8,5.2-8.2,5.7-11.1c0.9-0.8,2.4-1.8,2.8,0c0.3,1.8-1.8,5.5-2.9,7c-1.1,1.4-4.1,4.3-4.7,4.8
			C28.3,50.3,28,50.1,27.7,49.9z"/>
		<path class="st1" d="M29,51.9c3.4-2.5,7.3-7.5,8.4-10.2c0.5-0.3,1.5-0.5,1.6,0.8c0.1,2-2.8,6.3-8.7,9.6C29.9,52,29.4,51.9,29,51.9
			z"/>
		<path class="st1" d="M31.2,53.4c3.4-2,6.8-4.7,8.6-7.8c0.5,0.6,0.4,2.6-1.1,4.1c-1.5,1.5-5.3,3.8-7.4,4.6
			C31.3,54.1,31.3,53.7,31.2,53.4z"/>
		<path class="st1" d="M33.1,55.4c2.9-1.3,6-3.4,7.4-5.2c0.7,0.5,0.2,2.6-0.5,3.3c-2.1,0.6-5.6,2.2-6.2,2.5
			C33.7,55.8,33.3,55.5,33.1,55.4z"/>
		<path class="st1" d="M34.6,57.6c2.7-1.6,5-2.5,6.5-2.7c1.4-0.2,3,0.1,3,0.8c-2.3,0-5.6,1-8.3,2.5C35.5,58,35,57.8,34.6,57.6z"/>
		<path class="st1" d="M36.7,59c0.2,0.2,0.5,0.6,0.6,0.8c0.3,0.2,0.6,0.3,0.8,0.5c2.9-1.2,5.9-1.9,9-1.7c-0.1-0.6-1.2-1.2-2.3-1.3
			C43,57.2,39.1,57.9,36.7,59z"/>
		<path class="st1" d="M39,61c2.8-0.9,6.6-1.1,7.7-1.1c1.1,0.1,2.4,0.5,2.6,1.2c-2.5-0.3-6.7,0.2-9.6,1.2C39.6,61.8,39.3,61.3,39,61
			z"/>
		<path class="st1" d="M40.1,63.3c3.3-0.8,7-1.2,8.9-0.8c0.9,0.2,2.3,0.9,2.5,1.4c-2.5-0.6-6.9-0.4-10.2,0.4
			C40.9,63.9,40.5,63.5,40.1,63.3z"/>
		<path class="st1" d="M41.8,65.4c4.1-0.5,7.3-0.4,9.2,0.1c1,0.2,2.4,1.1,2.5,1.9c-3-1-8-0.9-11-0.7c-0.3-0.2-0.4-0.4-0.6-0.6
			C41.9,65.8,41.8,65.6,41.8,65.4z"/>
		<path class="st1" d="M43.2,68c4.1-0.3,11,0.2,12.4,2.4c-3.2-1-7-1.8-12-1.3c-0.2-0.1-0.5-0.3-0.5-0.3C43.2,68.5,43.2,68.2,43.2,68
			z"/>
		<path class="st1" d="M45.8,70.9c2,0,7.4,0.8,8.4,0.8C52.5,70.2,46.6,70.3,45.8,70.9z"/>
		<path class="st1" d="M46.7,72.7c1.9-0.5,4.7-0.1,5.8,0.8c-0.4,0.2-1.2,0.1-2,0C49.7,73.4,47.4,72.8,46.7,72.7z"/>
		<path class="st1" d="M28.6,35.4c0.9-7.2,1-17.2-1.5-23c3.7,2.3,5.7,11.9,4.2,20.3C30.4,33,29.3,34.3,28.6,35.4z"/>
		<path class="st1" d="M33.7,35c2.4-4.5,5.2-13.4,4.7-19.6c3.4,5.3-1.2,18.4-3,21c-0.7,0.1-1.3,0.5-1.6,0.7
			C33.9,36.4,33.8,35.4,33.7,35z"/>
		<path class="st1" d="M37.3,37.1c3.5-4.8,7.3-12.3,8-17c1.6,3.8-2.3,13.5-7.4,19.4C38,38.4,37.6,37.5,37.3,37.1z"/>
		<path class="st1" d="M39.8,40.8c3.1-2.9,7.8-9.3,9.5-13.1c0.4,4.2-2.7,11.1-8.9,16.8C40.9,42.6,40.3,41.2,39.8,40.8z"/>
		<path class="st1" d="M41.7,46.4c3.6-2.5,8.1-7,9.1-8.6c0.2,3.9-3.5,9-8.5,12.1c-0.1-0.5-0.5-1.1-0.8-1.3
			C41.8,47.7,41.8,46.9,41.7,46.4z"/>
		<path class="st1" d="M42.4,51.9c4-1.7,11.5-5.8,12.5-6.5c-0.3,1.9-2.6,3.7-4.4,4.7c-1.8,1.1-5.6,2.8-6.9,3.3
			c-0.5-0.2-1.3-0.2-1.7-0.2C42.3,52.8,42.4,52.3,42.4,51.9z"/>
		<path class="st1" d="M45.2,55.8c0.2-0.3,0.4-0.9,0.1-1.3c4.4-1.5,10.5-3.9,12.5-4.7c-0.7,1.3-3.4,3.3-5.9,4.2
			c-2.3,0.5-5.1,1.4-6.1,1.8C45.5,55.8,45.4,55.8,45.2,55.8z"/>
		<path class="st1" d="M48.1,57c4.1-1.3,10.8-2,13.5-0.2c-2.6-0.1-9.4,0.4-13,1.3C48.6,57.7,48.4,57.3,48.1,57z"/>
		<path class="st1" d="M50.9,61c4.1-0.9,10.1-0.9,12.2-0.9c0.4-0.5,0.6-1.1,0.8-1.4c-5.3-0.3-9.6-0.3-14.4,0.4
			C50.2,59.6,50.8,60.4,50.9,61z"/>
		<path class="st1" d="M52.9,63.3c2.2-0.5,7.6-0.3,8.4-0.3c0.2-0.3,0.9-1.4,0.9-1.4c-2.9-0.1-9.7,0.1-10.6,0.2
			C52.1,62.2,52.7,62.8,52.9,63.3z"/>
		<path class="st1" d="M53.2,64.7c1.9-0.2,5.6-0.5,7.1-0.3c-0.1,0.2-0.8,1.1-0.8,1.1c-1.9-0.3-4.1,0-5,0.3
			C54.2,65.4,53.6,64.9,53.2,64.7z"/>
		<path class="st1" d="M55.2,67.2c0.1,0.2,0,0.7-0.1,0.9c0.6,0.2,1.4,0.8,1.6,1c0.5-0.6,1.2-1.4,1.5-1.8
			C57.2,67.2,55.9,67.2,55.2,67.2z"/>
		<path class="st1" d="M44.7,102.8c1.2,0.6,2.2,0.7,2.8,0.8c0.4,0.7,1.1,1.4,1.6,1.8C47.6,105.5,45.5,104.7,44.7,102.8z"/>
		<path class="st1" d="M48.8,103.1c0.6,1.4,2.4,2.6,4.7,2.2c-1.2-0.5-2-1.2-2.4-1.7C50.2,103.6,49.3,103.3,48.8,103.1z"/>
		<path class="st1" d="M52.4,103.2c0.2,0,0.6-0.2,0.9-0.3c0.9,0,1.9-0.3,2.4-0.5c0.4,0.7,1,1.4,1.7,1.5
			C56,104.6,53.2,104,52.4,103.2z"/>
		<path class="st1" d="M51.9,106.6c1.2,0.2,2.9-0.1,3.4-0.3c0.3,0.7,1,1.4,1.9,1.7C55.8,108.5,53,107.9,51.9,106.6z"/>
		<path class="st1" d="M56.9,118c-1,0.9-2.5,2.5-3.7,2.3c-1.2-0.2-1.4-1.9-1.1-3c0.3-1.1,0.9-3.2-0.8-4.6c-1.2-0.9-3.6,0.4-3.9,1.2
			c-0.6,0.5-1,1.3-0.7,1.9c0.4-0.7,1.1-1.4,1.7-1.3c0.7,0.1,1.5,1.7,2.6,0.8c0.4,0.7-1.2,5.3-0.2,6.7c-1.5-0.3-2.3-3.1-2-5.1
			c-0.3,0-0.6-0.2-0.8-0.3c-0.4,0.3-0.1,1.5-0.6,1.6c-0.4,0.1-1.4-0.4-1.8-1.4c-1.1,0.3-2.1,2.2-0.8,3.9c0.2-1.2,0.7-1.6,1.1-1.7
			c0.4-0.1,0.9-0.1,1.2,0.1c0.3,0.2,0.9-0.2,0.9-0.7c0.5,0.6,0.1,1.4-0.1,1.6c0.4,0.9,1.2,2.7,2.7,3.2c0.6,0.2,2.2,0,2.7-0.8
			c0.1,0.9-0.7,1.8-1.8,2.1c0.4,0.4,1.6,0.4,2,0c0,0.6-0.6,1-1.5,1.2c0.3,0.4,0.3,1.2,0.2,1.4c1.3,0.3,1.9,1.6,1.6,2.5
			c-0.5-1-1.5-1.2-2-1c-0.5,0.3-0.5,1.1-1,1.2c-0.5,0.1-1.1-0.1-1.3-0.2c0.2,1.1,1.5,1.9,2.7,1.8c1.2-0.1,2.6-1.3,2.7-2.9
			c0.2-1.6-1.2-3-0.1-5.2c0.2-0.9,0.1-2.1,0-2.5c0.5,0,0.9,0.6,1.1,1c0.4-0.4,0.5-1.8,0.4-2.1c0.5,0.1,0.9,0.7,0.9,0.8
			c0.1,0,0.2-0.1,0.2-0.1C57,119.7,57.2,118.4,56.9,118z"/>
		<path class="st1" d="M49.9,123.7c-1.4,0.6-2.6,0.1-3.4-0.5c-0.7,0.4-1.9,0.4-2.4-0.3c-0.3,0.4-0.4,1.2-0.2,2
			c-1.8-0.9-1.7-3.3-0.7-4c0.8,1.1,1.7,1.5,2.8,1.5c-0.1-0.5,0-0.9,0.3-1.2C46.7,122.3,47.9,123.7,49.9,123.7z"/>
		<path class="st1" d="M48.3,126.2c0.8,0,1.7-0.1,2.1-0.2c0.1,0.7-0.5,1.5-1,1.5C48.8,127.5,48.3,126.6,48.3,126.2z"/>
		<path class="st1" d="M79.9,108.3c1.2,0.5,2.8,0.9,3.4,1c0.6,0.8,1.6,1.8,2,2.2C83.5,111.7,80.5,110.2,79.9,108.3z"/>
		<path class="st1" d="M72.6,117c1.4,3.3,5.9,11.9,11,12.7c-4.1-3.3-8.3-9.6-10.1-13.4C73.2,116.6,72.8,116.9,72.6,117z"/>
		<path class="st1" d="M74.8,114.6c1.6,4.4,7.9,15,13.8,15.4c-6-4-10.3-10.8-12.3-14.9C75.7,115,75.1,114.8,74.8,114.6z"/>
		<path class="st1" d="M78.9,115.6c3.4,5.9,7.4,10.7,11.1,13.2c1.7,1.1,3.8,1.7,4.9,1.3c-6.9-2.8-13-12.1-14.5-14.6
			C79.7,115.6,79.4,115.7,78.9,115.6z"/>
		<path class="st1" d="M82.7,115c3.6,5.7,8.3,10.7,11.4,12.6c2.3,1.4,3.9,1.9,5.9,1.8c-6.3-3-12.1-9.3-15.6-14.2
			C83.7,115.1,83.3,115.1,82.7,115z"/>
		<path class="st1" d="M86.6,115.2c4.2,5.7,11.3,11.5,15.4,12.5c1.7,0.4,4.1,0.4,5.3,0c-7.6-2.1-14.6-7.4-19.4-12.5
			C87.4,115.2,87,115.2,86.6,115.2z"/>
		<path class="st1" d="M86.2,109.8c4.5,5.7,12.6,12,16.6,13.9c2.1,1,7.1,3,11.2,1.8c-8-1.4-17.3-7.3-25.1-15
			C87.9,110.2,86.9,110,86.2,109.8z"/>
		<path class="st1" d="M87.9,105.1c0.8,1.5,1.8,3,2.3,3.8c7,6.5,15.9,12.6,22.3,14c2.7,0.6,7,0.5,9.1-0.7
			C112.6,121,98.1,112.6,87.9,105.1z"/>
	</g>
	<g>
		<path class="st0" d="M22.1,110.3c-4.2,0.3-7.2-1.6-7.9-4.1c-0.6-2.4,0.7-3.9,1.7-4.8c-1-0.8-0.8-2,0.1-3.7
			c1.3-2.4,6.5-8.1,12.4-12.3c4.6-3.2,11.1-6.2,12.8-6.7c0.4,1,0.2,3-0.1,3.6c0.7-0.3,1.5-0.7,2-1.1c0.6,0.8,1.1,3.7-0.1,5.9
			c0.6-0.2,1.2-0.6,1.6-0.8c0.7,1.9,0,4-0.9,5.1c0.6-0.1,1-0.3,1.2-0.4c0.2,1.4-0.7,3.3-2.2,4.4c0.5,0,1-0.1,1.4-0.2
			c-0.2,1.3-1.6,2.9-3.2,3.8c0.5,0.1,1.2,0.1,1.7,0c-0.7,1.9-3.4,2.7-4.6,3.1c0.7,0.4,1.2,0.5,1.7,0.5c-1.4,0.8-3.4,0.7-6.7,0.6
			c-3.3,0-7.3,1-9.8,2.9C22.2,107.3,21.4,109.2,22.1,110.3z"/>
		<path class="st1" d="M19.5,108.3c-2-0.2-3.6-2.3-3.6-3.5c0.1-1.2,1.4-2.8,2.1-3.6c0.3-0.4-1.3-1.3-0.2-2.9
			c1.1-1.7,6.6-7.2,9.9-9.8c3.3-2.6,8.3-5.5,11.6-7c0,0.9-0.5,2.4-0.9,3.3c1.2,0.1,2.8-0.8,3.1-0.9c0.3,1.6-0.7,4.3-1.9,5.7
			c0.9,0.2,2.7-0.1,3.6-0.6c-0.2,1.9-2.2,3.9-3.1,4.7c0.9,0,2.3-0.4,2.7-0.6c-0.7,1.3-2.5,3-4.5,4.1c0.7,0.3,2,0.3,2.6,0.2
			c-0.7,0.7-2.7,2-4.4,2.2c0.6-0.6,0.6-1.5,0.6-1.9c-1.2,0.8-2.4,1.4-3.7,1.7c0.3-0.4,0.4-0.9,0.4-1.2c-0.9,0.7-2.6,1.9-3.8,2.2
			c0.5-0.6,0.6-1.1,0.6-1.5c-0.9,0.7-2.8,1.7-3.8,2.1c0.4,0.3,1.1,0.4,1.7,0.5c-1.5,1-2.7,0.8-5.2,2.7c0.3-0.8,2-2.3,3-2.4
			c-1.4-0.4-3.6,0.1-4.3,1.3c0.5,0,0.7,0.1,0.9,0.2C21.6,104.1,19.1,106.1,19.5,108.3z"/>
		<path class="st1" d="M31.1,101c0.7-0.1,1.3-0.5,1.6-0.8c0.5,0.1,1,0.2,1.4,0.2C33.5,100.9,32.1,101.4,31.1,101z"/>
		<path class="st1" d="M35.9,100.4c0.6,0.1,1.6,0,1.9-0.1c-1.1,0.8-1.7,1.2-3,1C35.3,101,35.7,100.7,35.9,100.4z"/>
		<path class="st0" d="M19,99.3c0.2,0.3,0.6,0.9,1.1,0.4c0.5-0.5,2.3-2.3,3.1-2.7c0.8-0.3,1.8-0.3,2.4,0c-0.6,0.1-1.1,0.3-1.5,0.5
			c0.4,0.4,0.3,1.4-0.6,1.9c0.1-0.5,0-1-0.2-1.2c-0.4,0.4-1.3,1.4-1.6,1.8c0.4,0.2,1,0.1,1.4,0.1c-0.1,0.6-1.1,0.9-2,0.9
			c-0.8,0-1.9,0.1-2.4,0.2c0-0.3,0.3-0.5,0.5-0.6C18.9,100.3,18.9,99.6,19,99.3z"/>
		<path class="st0" d="M18.3,102.1c0,0.5,1.1,0.5,1.9-0.1C19.6,101.4,18.3,101.6,18.3,102.1z"/>
	</g>
</g>
</svg>
